<svg width="47" height="39" viewBox="0 0 47 39" fill="none" xmlns="http://www.w3.org/2000/svg">
<g filter="url(#filter0_d_2_58)">
<path d="M19.1921 34.4358C17.2308 36.741 14.038 36.7565 12.0602 34.4719L8.31084 30.1409C7.43802 27.5925 6.99338 24.896 8.46074 22.9431L10.0072 21.1936C10.842 19.996 11.5359 18.6268 12.274 18.122L12.5194 18.4484L19.1643 26.123C21.1421 28.4083 21.156 32.1292 19.1934 34.4358H19.1921Z" fill="url(#paint0_linear_2_58)"/>
<path d="M19.1156 10.8438L12.5833 18.5221C12.5807 18.5221 12.5788 18.5228 12.5776 18.5243L12.2133 18.9436L8.44936 14.2788C6.84474 12.3133 7.28748 8.32125 8.26151 6.92473L8.33172 6.81567L11.9489 2.56641C13.9115 0.259762 17.1049 0.243549 19.0846 2.5303C21.0624 4.81485 21.0763 8.53571 19.1156 10.8446V10.8438Z" fill="url(#paint1_linear_2_58)"/>
<path d="M12.5833 18.5214L12.5991 18.5398L12.5833 18.5214L12.6004 18.5015L12.5833 18.5214Z" fill="url(#paint2_linear_2_58)"/>
<path d="M8.37852 30.2175L8.33488 30.1667C7.46205 27.6183 7.29191 24.9653 8.75864 23.0124L10.1843 21.3373C11.0191 20.1397 11.8401 19.0284 12.5782 18.5229L12.5814 18.5184L8.73904 14.0805C7.13442 12.1151 7.28748 8.32054 8.26151 6.92328L8.37599 6.78915L8.38295 6.79726C8.35891 6.826 8.33425 6.86211 8.30831 6.89675C8.29946 6.91149 8.28934 6.92696 8.28049 6.9417C7.7941 7.64033 7.51834 8.92189 7.55819 10.2889C7.58602 11.1814 7.77703 12.8601 8.75801 14.0628L12.6004 18.5008L12.5833 18.5214L12.5991 18.5398L12.5902 18.5501C11.8319 19.0667 10.9622 20.2687 10.2032 21.3557L8.77635 23.033C7.15466 25.1915 7.65306 28.0988 8.35765 30.1564L8.37852 30.2175Z" fill="url(#paint3_linear_2_58)"/>
<path d="M8.75864 23.0131L12.5782 18.5236L12.582 18.5192L8.73967 14.0813C7.13569 12.1151 7.28875 8.32054 8.26214 6.92402L8.37662 6.7899L8.36587 6.77811L1.15555 15.3252C0.0980339 16.5685 -0.230858 18.3327 0.157487 19.9017C0.3466 20.6129 0.67992 21.285 1.1663 21.8465L4.91061 26.1916L8.06544 29.8564L8.33488 30.1674C7.46142 27.619 7.29128 24.966 8.75928 23.0131H8.75864Z" fill="url(#paint4_linear_2_58)"/>
<path d="M25.9597 34.4815C27.9425 36.7609 31.1359 36.7358 33.0916 34.4255L36.7998 30.0465C37.6486 27.4871 38.0673 24.7847 36.5816 22.851L35.0188 21.1221C34.1725 19.9356 33.466 18.5752 32.7228 18.0799L32.4806 18.4094L25.9091 26.1687C23.9535 28.479 23.975 32.1999 25.9591 34.4815H25.9597Z" fill="url(#paint5_linear_2_58)"/>
<path d="M25.8117 10.8895L32.4167 18.483C32.4193 18.483 32.4212 18.4838 32.4224 18.4853L32.7905 18.9002L36.5102 14.1866C38.0958 12.2006 37.6151 8.21513 36.6284 6.8304L36.557 6.72207L32.8999 2.51924C30.9158 0.237648 27.7224 0.262705 25.7643 2.57525C23.808 4.88485 23.8295 8.60571 25.8123 10.8895H25.8117Z" fill="url(#paint6_linear_2_58)"/>
<path d="M32.4167 18.483L32.4015 18.5015L32.4167 18.483L32.399 18.4632L32.4167 18.483Z" fill="url(#paint7_linear_2_58)"/>
<path d="M36.7328 30.1239L36.7758 30.0731C37.6246 27.5136 37.7694 24.8584 36.2837 22.9246L34.8423 21.268C33.996 20.0815 33.1643 18.9805 32.4218 18.4853L32.418 18.4816L36.218 13.9943C37.8036 12.0082 37.6145 8.21587 36.6278 6.83114L36.5121 6.69849L36.5051 6.70659C36.5298 6.7346 36.5544 6.77144 36.5804 6.80534C36.5892 6.81935 36.6 6.83556 36.6082 6.84956C37.1015 7.54156 37.3893 8.81943 37.3621 10.1872C37.3431 11.0804 37.168 12.7614 36.1984 13.9759L32.3984 18.4632L32.4161 18.483L32.4003 18.5015L32.4091 18.5118C33.1725 19.0188 34.0536 20.209 34.8227 21.2864L36.2654 22.9453C37.9073 25.0832 37.4368 27.9963 36.7518 30.0627L36.7315 30.1239H36.7328Z" fill="url(#paint8_linear_2_58)"/>
<path d="M36.2837 22.9246L32.4218 18.4852L32.418 18.4808L36.218 13.9935C37.8036 12.0067 37.6145 8.21438 36.6278 6.83039L36.5121 6.69774L36.5222 6.68521L43.8128 15.1395C44.8824 16.3687 45.2277 18.1286 44.8545 19.7027C44.6724 20.4161 44.3454 21.0926 43.8647 21.66L40.1621 26.053L37.0427 29.7584L36.7764 30.073C37.6252 27.5136 37.7701 24.8584 36.2844 22.9246H36.2837Z" fill="url(#paint9_linear_2_58)"/>
</g>
<defs>
<filter id="filter0_d_2_58" x="0" y="0.82431" width="47" height="37.3508" filterUnits="userSpaceOnUse" color-interpolation-filters="sRGB">
<feFlood flood-opacity="0" result="BackgroundImageFix"/>
<feColorMatrix in="SourceAlpha" type="matrix" values="0 0 0 0 0 0 0 0 0 0 0 0 0 0 0 0 0 0 127 0" result="hardAlpha"/>
<feOffset dx="1" dy="1"/>
<feGaussianBlur stdDeviation="0.5"/>
<feColorMatrix type="matrix" values="0 0 0 0 0 0 0 0 0 0 0 0 0 0 0 0 0 0 0.25 0"/>
<feBlend mode="normal" in2="BackgroundImageFix" result="effect1_dropShadow_2_58"/>
<feBlend mode="normal" in="SourceGraphic" in2="effect1_dropShadow_2_58" result="shape"/>
</filter>
<linearGradient id="paint0_linear_2_58" x1="696.802" y1="4165.31" x2="708.519" y2="4163.36" gradientUnits="userSpaceOnUse">
<stop stop-color="#9598EF"/>
<stop offset="1" stop-color="#6366F2"/>
</linearGradient>
<linearGradient id="paint1_linear_2_58" x1="672.166" y1="-4150.3" x2="683.873" y2="-4148.43" gradientUnits="userSpaceOnUse">
<stop stop-color="#6366F2"/>
<stop offset="1" stop-color="#05ACF1"/>
</linearGradient>
<linearGradient id="paint2_linear_2_58" x1="12.6335" y1="20.1119" x2="12.6569" y2="20.113" gradientUnits="userSpaceOnUse">
<stop stop-color="#6366F2"/>
<stop offset="1" stop-color="#05ACF1"/>
</linearGradient>
<linearGradient id="paint3_linear_2_58" x1="1.5808" y1="-90.5203" x2="15.7984" y2="-90.5224" gradientUnits="userSpaceOnUse">
<stop stop-color="#6366F2"/>
<stop offset="1" stop-color="#05ACF1"/>
</linearGradient>
<linearGradient id="paint4_linear_2_58" x1="1.46343" y1="-134.114" x2="15.657" y2="-134.095" gradientUnits="userSpaceOnUse">
<stop stop-color="#6366F2"/>
<stop offset="1" stop-color="#05ACF1"/>
</linearGradient>
<linearGradient id="paint5_linear_2_58" x1="-669.527" y1="4157.54" x2="-681.164" y2="4155.55" gradientUnits="userSpaceOnUse">
<stop stop-color="#0FB9D7"/>
<stop offset="0.76" stop-color="#9ECE6B"/>
</linearGradient>
<linearGradient id="paint6_linear_2_58" x1="3339.95" y1="1091.93" x2="3335.86" y2="1104.36" gradientUnits="userSpaceOnUse">
<stop stop-color="#00EFC8"/>
<stop offset="1" stop-color="#2C94EA"/>
</linearGradient>
<linearGradient id="paint7_linear_2_58" x1="34.2978" y1="18.928" x2="34.2931" y2="18.954" gradientUnits="userSpaceOnUse">
<stop stop-color="#00EFC8"/>
<stop offset="1" stop-color="#2C94EA"/>
</linearGradient>
<linearGradient id="paint8_linear_2_58" x1="126.987" y1="20.1291" x2="125.029" y2="36.5331" gradientUnits="userSpaceOnUse">
<stop stop-color="#00EFC8"/>
<stop offset="1" stop-color="#2C94EA"/>
</linearGradient>
<linearGradient id="paint9_linear_2_58" x1="167.389" y1="26.0399" x2="165.402" y2="42.406" gradientUnits="userSpaceOnUse">
<stop stop-color="#00EFC8"/>
<stop offset="1" stop-color="#2C94EA"/>
</linearGradient>
</defs>
</svg>
